<?xml version="1.0" encoding="UTF-8"?>
<svg version="1.1" xmlns="http://www.w3.org/2000/svg" width="256" height="255">
<path d="M0 0 C84.48 0 168.96 0 256 0 C256 84.15 256 168.3 256 255 C171.52 255 87.04 255 0 255 C0 170.85 0 86.7 0 0 Z " fill="#1F5F75" transform="translate(0,0)"/>
<path d="M0 0 C84.48 0 168.96 0 256 0 C256 84.15 256 168.3 256 255 C171.52 255 87.04 255 0 255 C0 170.85 0 86.7 0 0 Z M4 2 C0.01667661 44.76984196 0.01667661 44.76984196 17.01220703 81.68261719 C19.58919443 84.68688695 21.63727272 87.91272511 23.73754883 91.25927734 C32.23798681 104.7620778 42.1419287 117.4747892 52.65429688 129.46191406 C53.54934943 130.48492406 54.43872685 131.51292807 55.32226562 132.54589844 C64.53771188 143.31090492 74.74784623 152.09544223 87.4453125 158.51953125 C91.82161758 161.05564688 95.38952659 164.48758883 99 168 C76.63538446 163.21183098 56.87046021 153.2397183 39 139 C38.20851562 138.40058594 37.41703125 137.80117187 36.6015625 137.18359375 C31.06067889 132.9220836 25.92449782 128.25924419 20.8125 123.5 C19.81428223 122.57453369 19.81428223 122.57453369 18.79589844 121.63037109 C14.74553072 117.81666086 11.02650915 113.8480254 7.4519043 109.58398438 C6.06849345 107.88542858 6.06849345 107.88542858 4 107 C4 126.8 4 146.6 4 167 C10.435 169.475 10.435 169.475 17 172 C18.546875 172.66 20.09375 173.32 21.6875 174 C49.22195183 184.95170628 85.14055244 189.71818774 113.49609375 179.40625 C117.9502526 177.85976066 121.88323037 177.64146765 126.5625 177.8125 C127.28501953 177.82603516 128.00753906 177.83957031 128.75195312 177.85351562 C130.50163812 177.88827758 132.25092928 177.94205533 134 178 C106.88279142 193.28082885 78.40659852 202.48159672 47.0625 202.25 C45.09071777 202.24093628 45.09071777 202.24093628 43.07910156 202.23168945 C31.36208097 202.1117274 20.20713595 201.47813724 9.05078125 197.5859375 C6.71445815 196.81685258 6.71445815 196.81685258 3 197 C3 215.15 3 233.3 3 252 C47.53395499 255.77108965 47.53395499 255.77108965 85.33813477 237.22924805 C89.06948823 234.10432936 93.09297238 231.51625054 97.16333008 228.85791016 C109.08404951 221.05029548 120.30200045 212.39852503 131 203 C131.76828125 202.34257812 132.5365625 201.68515625 133.328125 201.0078125 C135.2430403 199.36332417 137.12970564 197.69495426 139 196 C139.556875 195.49726563 140.11375 194.99453125 140.6875 194.4765625 C148.93137231 186.65251702 155.40190161 177.53349199 160.55078125 167.45703125 C162.77361274 163.6884032 165.71263275 160.84970001 169 158 C162.74795473 193.01145351 137.50992218 226.77551257 110.5 248.9375 C109.675 249.618125 108.85 250.29875 108 251 C108 251.33 108 251.66 108 252 C127.8 252 147.6 252 168 252 C173.22087361 239.86409789 173.22087361 239.86409789 177.6875 227.5 C177.98293701 226.60200684 178.27837402 225.70401367 178.58276367 224.77880859 C180.90250023 217.58291742 182.73676819 210.46374287 184 203 C184.20367187 201.90816406 184.40734375 200.81632813 184.6171875 199.69140625 C187.67142658 180.92666342 187.54990619 161.12127603 181.3125 143.0625 C179.10271452 136.28352266 179.76421161 129.03872009 180 122 C190.89997411 137.85839371 197.15114148 157.05397411 201.1875 175.6875 C201.35483643 176.45980957 201.52217285 177.23211914 201.69458008 178.02783203 C206.10540969 199.42456404 206.05292117 223.72689357 199.8984375 244.765625 C198.82157076 248.08287202 198.82157076 248.08287202 199 252 C217.15 252 235.3 252 254 252 C257.8838631 209.75059718 257.8838631 209.75059718 241.00537109 173.35546875 C238.36439243 170.25342807 236.23617547 166.92056916 234.05908203 163.48461914 C229.37530219 156.09983413 224.25000812 148.98959414 219 142 C218.2678125 141.00097656 217.535625 140.00195312 216.78125 138.97265625 C203.352249 120.86221403 187.99016102 105.70140734 168.38671875 94.5078125 C165.92921278 92.95528009 163.84812172 91.25339748 161.6875 89.3125 C160.64142578 88.37857422 160.64142578 88.37857422 159.57421875 87.42578125 C159.05472656 86.95527344 158.53523437 86.48476562 158 86 C191.00150451 91.68787151 218.80258492 113.05365183 242 136 C242.72396973 136.69770508 243.44793945 137.39541016 244.19384766 138.11425781 C244.90976074 138.81131836 245.62567383 139.50837891 246.36328125 140.2265625 C247.33648315 141.16749756 247.33648315 141.16749756 248.3293457 142.12744141 C249.99696064 143.99659333 250.99937232 145.71547058 252 148 C252.66 148 253.32 148 254 148 C254 128.2 254 108.4 254 88 C222.9910068 72.4955034 182.0126152 62.54182746 148 73 C146.51763457 73.55401536 145.03812157 74.1157647 143.5625 74.6875 C137.09889217 77.08327742 129.78002499 76.22461432 123 76 C138.70043418 65.39254782 157.56839558 58.89044409 176 55 C177.6696582 54.60615112 177.6696582 54.60615112 179.37304688 54.2043457 C188.512232 52.1542007 197.22357337 51.53121021 206.57861328 51.60888672 C208.86682145 51.62494261 211.15325162 51.60894845 213.44140625 51.58984375 C223.92101958 51.5749679 233.75164587 52.8827549 244 55 C247.3 55.66 250.6 56.32 254 57 C254 38.85 254 20.7 254 2 C209.44097102 -1.75208485 209.44097102 -1.75208485 171.67675781 16.75537109 C168.28368098 19.60067831 164.67654766 21.97758913 160.96875 24.38842773 C157.23917208 26.8230543 153.61928755 29.40535094 150 32 C149.42411133 32.4115332 148.84822266 32.82306641 148.25488281 33.24707031 C140.15029098 39.07788743 132.5158537 45.43850338 125 52 C124.4951709 52.44021484 123.9903418 52.88042969 123.47021484 53.33398438 C114.00448268 61.63627846 106.75277845 70.00362195 100.11328125 80.6328125 C97.21354579 85.2530934 94.35927918 89.77354639 90.75 93.875 C89.96882813 94.76832031 89.96882813 94.76832031 89.171875 95.6796875 C88.78515625 96.11539063 88.3984375 96.55109375 88 97 C92.58874401 69.4238336 108.15114326 44.71662549 127.32421875 24.79296875 C129.51840738 22.50268427 131.58817548 20.17797115 133.625 17.75 C137.91472794 12.78238913 143.08508485 6.95745758 149 4 C149 3.34 149 2.68 149 2 C129.2 2 109.4 2 89 2 C82.9171886 15.79986213 82.9171886 15.79986213 78.25 29.9375 C77.9605249 30.96907227 77.6710498 32.00064453 77.37280273 33.06347656 C76.55644768 36.03633291 75.76927931 39.01465092 75 42 C74.8035791 42.75361816 74.6071582 43.50723633 74.40478516 44.28369141 C69.19588023 65.1940801 69.00585249 93.38510997 77.0546875 113.65625 C78.23460543 117.82984401 78.21991138 121.56748348 78.125 125.875 C78.11597656 126.65875 78.10695313 127.4425 78.09765625 128.25 C78.07428063 130.16680055 78.03841653 132.08344191 78 134 C56.20078296 91.53633563 45.52784925 49.15252764 59 2 C40.85 2 22.7 2 4 2 Z " fill="#FAFBFA" transform="translate(0,0)"/>
<path d="M0 0 C5.1555683 5.1555683 6.53974555 8.88974114 6.875 16.125 C6.64264394 22.95772027 5.28300213 27.51777489 0.25 32.25 C-5.28954413 36.28568164 -10.65046242 37.99504437 -17.49609375 37.609375 C-20.71698588 37.09581854 -23.02449315 36.02474865 -25.75 34.25 C-26.61625 33.693125 -27.4825 33.13625 -28.375 32.5625 C-33.42692188 27.64352343 -35.02212838 22.83710708 -35.375 15.8125 C-35.16070305 9.21521531 -33.27619762 5.01279431 -28.75 0.25 C-20.06299428 -7.39371337 -9.17397232 -5.83798239 0 0 Z " fill="#F5F7F7" transform="translate(142.75,110.75)"/>
<path d="M0 0 C-0.66 1.98 -1.32 3.96 -2 6 C-2.66 6 -3.32 6 -4 6 C-4 6.99 -4 7.98 -4 9 C-5.216875 8.9175 -6.43375 8.835 -7.6875 8.75 C-11.0726174 8.73799604 -11.93868234 8.96086107 -14.9375 10.875 C-18.09695358 14.1301946 -18.33421243 16.42413238 -18.29296875 20.9609375 C-17.83745033 24.13134567 -16.24684343 25.8192402 -14 28 C-13.34 28.33 -12.68 28.66 -12 29 C-12 29.66 -12 30.32 -12 31 C-14.64 31.66 -17.28 32.32 -20 33 C-19.67 33.99 -19.34 34.98 -19 36 C-23.88765533 34.64231796 -25.52591098 32.32965579 -28 28 C-29.97449536 22.07651391 -30.29021425 15.10276436 -27.87109375 9.28515625 C-24.54231857 4.06167353 -20.91986471 0.56794588 -15.125 -1.75 C-9.5690792 -2.40363774 -5.05980653 -2.52990326 0 0 Z " fill="#F6F8F8" transform="translate(137,108)"/>
<path d="M0 0 C3.0603333 1.7655769 5.50587755 3.50587755 8 6 C8.75689075 10.47973713 8.58519138 14.01771448 6.25 17.9375 C3.152255 20.77709959 1.28349643 21.80468533 -2.875 22.4375 C-7.2682371 21.82244681 -8.84565969 20.08098355 -12 17 C-13.61429923 13.77140153 -13.59570657 10.49006347 -13 7 C-9.78955153 1.40567374 -6.38167969 -0.61362305 0 0 Z " fill="#226075" transform="translate(131,116)"/>
<path d="M0 0 C16.77592798 2.66284571 31.30843585 9.8015282 46 18 C46 18.33 46 18.66 46 19 C44.88625 19.12375 44.88625 19.12375 43.75 19.25 C40.43395471 20.15437599 39.16468609 21.3714526 37 24 C36.505 25.485 36.505 25.485 36 27 C35.53851563 26.64808594 35.07703125 26.29617187 34.6015625 25.93359375 C24.69662032 18.18040078 24.69662032 18.18040078 13.8125 12 C9.31002118 9.89458986 6.31865178 6.62111118 3 3 C2.00458708 1.99543386 1.00602393 0.99393956 0 0 Z " fill="#F6F8F7" transform="translate(157,85)"/>
<path d="M0 0 C2.95347551 3.50160961 5.26719585 6.99598028 7.375 11.0625 C7.91898438 12.08472656 8.46296875 13.10695312 9.0234375 14.16015625 C10 17 10 17 9.2890625 19.30859375 C8 21 8 21 6 22 C6 24.31 6 26.62 6 29 C3 28 3 28 2.05078125 26.34765625 C-0.74802073 17.68469773 -0.2644941 8.9927994 0 0 Z " fill="#F5F7F6" transform="translate(179,120)"/>
<path d="M0 0 C7.60913098 1.2794114 14.73225897 3.42756933 22 6 C21.01 6.66 20.02 7.32 19 8 C19 9.32 19 10.64 19 12 C16 13 16 13 13.25 12 C9.19678049 9.50571107 6.23790855 6.44958781 3 3 C2.00342658 1.99658512 1.00454194 0.99543733 0 0 Z " fill="#F5F8F7" transform="translate(157,85)"/>
<path d="M0 0 C-3.66909488 3.72355269 -7.44674879 7.2943376 -11.3125 10.8125 C-12.13717773 11.56563477 -12.13717773 11.56563477 -12.97851562 12.33398438 C-14.31805239 13.55703968 -15.65888992 14.77867008 -17 16 C-17.66 15.67 -18.32 15.34 -19 15 C-18.34 13.68 -17.68 12.36 -17 11 C-16.34 11 -15.68 11 -15 11 C-15 9.02 -15 7.04 -15 5 C-14.401875 5.185625 -13.80375 5.37125 -13.1875 5.5625 C-10.83591238 6.22093687 -10.83591238 6.22093687 -8 5 C-7.855625 4.360625 -7.71125 3.72125 -7.5625 3.0625 C-7 1 -7 1 -5.125 -0.3125 C-3 -1 -3 -1 0 0 Z " fill="#EBF0EF" transform="translate(139,40)"/>
<path d="M0 0 C3 3.625 3 3.625 3 7 C3.99 7.33 4.98 7.66 6 8 C2.66666667 11.33333333 -0.66666667 14.66666667 -4 18 C-2.07289294 5.33029613 -2.07289294 5.33029613 0 0 Z " fill="#E8EEF0" transform="translate(91,80)"/>
<path d="M0 0 C1.25127906 3.54667178 0.72285053 5.72253438 -0.4375 9.25 C-0.72496094 10.14203125 -1.01242188 11.0340625 -1.30859375 11.953125 C-1.53675781 12.62859375 -1.76492187 13.3040625 -2 14 C-2.99 13.01 -3.98 12.02 -5 11 C-6.32 11.99 -7.64 12.98 -9 14 C-9.33 13.34 -9.66 12.68 -10 12 C-7.75812902 7.09590723 -3.84780996 3.65805495 0 0 Z " fill="#F0F3F1" transform="translate(169,157)"/>
<path d="M0 0 C4.62 0 9.24 0 14 0 C7.67924528 5.05660377 7.67924528 5.05660377 4 6 C1.6875 5.125 1.6875 5.125 0 4 C0 2.68 0 1.36 0 0 Z " fill="#F6F8F6" transform="translate(122,177)"/>
<path d="M0 0 C1.58467728 0.28427417 3.1677057 0.57774818 4.75 0.875 C6.07257813 1.11863281 6.07257813 1.11863281 7.421875 1.3671875 C9.86947744 1.96796264 11.80599857 2.77997117 14 4 C13.34 4.66 12.68 5.32 12 6 C11.3574765 8.06874034 11.3574765 8.06874034 11 10 C7.19364503 6.79239749 3.45436433 3.59253891 0 0 Z " fill="#DEE8E9" transform="translate(157,85)"/>
<path d="M0 0 C0.66 0.99 1.32 1.98 2 3 C1.34 4.32 0.68 5.64 0 7 C-0.33 6.34 -0.66 5.68 -1 5 C-1.2475 5.639375 -1.495 6.27875 -1.75 6.9375 C-3.32987939 9.544301 -4.16780311 9.29195078 -7 10 C-8.24174796 11.9001177 -8.24174796 11.9001177 -9 14 C-9.33 14.66 -9.66 15.32 -10 16 C-10.99 15.67 -11.98 15.34 -13 15 C-8.70214922 9.96836982 -4.36574458 4.97281557 0 0 Z " fill="#F1F6F5" transform="translate(149,184)"/>
<path d="M0 0 C1.31611677 0.95336021 2.62778961 1.91285774 3.9375 2.875 C4.66839844 3.40867188 5.39929688 3.94234375 6.15234375 4.4921875 C8 6 8 6 9 8 C4.38 7.01 -0.24 6.02 -5 5 C-3.35 3.35 -1.7 1.7 0 0 Z " fill="#DDE7E9" transform="translate(91,161)"/>
<path d="M0 0 C0.99 0.66 1.98 1.32 3 2 C2.67 4.31 2.34 6.62 2 9 C1.05125 8.67 0.1025 8.34 -0.875 8 C-3.77062452 6.89840809 -3.77062452 6.89840809 -6 7 C-5.67 5.68 -5.34 4.36 -5 3 C-4.360625 2.87625 -3.72125 2.7525 -3.0625 2.625 C-2.0415625 2.315625 -2.0415625 2.315625 -1 2 C-0.67 1.34 -0.34 0.68 0 0 Z " fill="#F3F5F5" transform="translate(163,167)"/>
<path d="M0 0 C0.66 0.33 1.32 0.66 2 1 C1.67 1.33 1.34 1.66 1 2 C0.46067708 5.58491118 0.03332955 9.17846262 -0.40234375 12.77734375 C-1 16 -1 16 -3 18 C-3.08150744 15.93816367 -3.1394194 13.87538651 -3.1875 11.8125 C-3.22230469 10.66394531 -3.25710937 9.51539062 -3.29296875 8.33203125 C-2.97622579 4.72960801 -2.08533398 2.90633161 0 0 Z " fill="#EEF2F1" transform="translate(111,115)"/>
<path d="M0 0 C2.0245738 1.93254772 3.42105792 3.63158688 5 6 C0.38 6 -4.24 6 -9 6 C-3.375 1.5 -3.375 1.5 0 0 Z " fill="#D8E3E5" transform="translate(130,71)"/>
<path d="M0 0 C0.33 0.66 0.66 1.32 1 2 C2.65 1.34 4.3 0.68 6 0 C6.33 0.99 6.66 1.98 7 3 C9.01508358 3.73323796 9.01508358 3.73323796 11 4 C10.67 4.66 10.34 5.32 10 6 C7.3125 6.3125 7.3125 6.3125 4 6 C1.125 3.5 1.125 3.5 -1 1 C-0.67 0.67 -0.34 0.34 0 0 Z " fill="#336E83" transform="translate(121,132)"/>
<path d="M0 0 C0.99 0.33 1.98 0.66 3 1 C-0.44615385 5.8 -0.44615385 5.8 -3.25 6.8125 C-4.11625 6.9053125 -4.11625 6.9053125 -5 7 C-5 7.66 -5 8.32 -5 9 C-5.99 9.33 -6.98 9.66 -8 10 C-7.4346089 6.49304707 -6.31277274 4.97267387 -3.625 2.6875 C-3.01914063 2.15511719 -2.41328125 1.62273437 -1.7890625 1.07421875 C-0.90347656 0.54248047 -0.90347656 0.54248047 0 0 Z " fill="#EAEFEF" transform="translate(131,202)"/>
<path d="M0 0 C0.90685547 0.29970703 0.90685547 0.29970703 1.83203125 0.60546875 C0.73739303 1.78108021 -0.36904061 2.94571765 -1.48046875 4.10546875 C-2.09535156 4.75515625 -2.71023437 5.40484375 -3.34375 6.07421875 C-5.16796875 7.60546875 -5.16796875 7.60546875 -8.16796875 7.60546875 C-7.83582724 4.50548129 -7.11346755 3.55096755 -4.85546875 1.29296875 C-2.16796875 -0.39453125 -2.16796875 -0.39453125 0 0 Z " fill="#2B6479" transform="translate(128.16796875,21.39453125)"/>
<path d="M0 0 C1.65 0 3.3 0 5 0 C5 0.33 5 0.66 5 1 C7.97 1.33 10.94 1.66 14 2 C14.33 2.99 14.66 3.98 15 5 C9.76119922 4.44854729 5.02649303 3.57077907 0 2 C0 1.34 0 0.68 0 0 Z " fill="#3F7484" transform="translate(34,176)"/>
<path d="M0 0 C0.66 0.33 1.32 0.66 2 1 C2.1875 3.8125 2.1875 3.8125 2 7 C1.01 7.99 0.02 8.98 -1 10 C-1.66 7.03 -2.32 4.06 -3 1 C-2.01 0.67 -1.02 0.34 0 0 Z " fill="#F1F4F3" transform="translate(60,83)"/>
<path d="M0 0 C0.99 0.99 1.98 1.98 3 3 C2.67 3.66 2.34 4.32 2 5 C3.32 5.33 4.64 5.66 6 6 C4.375 6.6875 4.375 6.6875 2 7 C-1.25 5.5625 -1.25 5.5625 -4 4 C-4 3.01 -4 2.02 -4 1 C-2.68 1.33 -1.36 1.66 0 2 C0 1.34 0 0.68 0 0 Z " fill="#E9EEEF" transform="translate(73,155)"/>
<path d="M0 0 C0.66 0.66 1.32 1.32 2 2 C0.02 4.31 -1.96 6.62 -4 9 C-4.66 8.67 -5.32 8.34 -6 8 C-6 7.34 -6 6.68 -6 6 C-5.34 6 -4.68 6 -4 6 C-4 5.01 -4 4.02 -4 3 C-2 1.3125 -2 1.3125 0 0 Z " fill="#E6EDED" transform="translate(113,60)"/>
<path d="M0 0 C1.65 0.33 3.3 0.66 5 1 C4.01 3.31 3.02 5.62 2 8 C1.01 7.67 0.02 7.34 -1 7 C-0.67 4.69 -0.34 2.38 0 0 Z " fill="#F5F6F3" transform="translate(85,0)"/>
<path d="M0 0 C3.93673644 1.31224548 6.22719294 2.91910327 9 6 C5.61976483 6 3.16531063 5.12544378 0 4 C0 2.68 0 1.36 0 0 Z " fill="#286577" transform="translate(30,134)"/>
<path d="M0 0 C0.103125 0.639375 0.20625 1.27875 0.3125 1.9375 C0.539375 2.618125 0.76625 3.29875 1 4 C1.99 4.33 2.98 4.66 4 5 C2.35 7.31 0.7 9.62 -1 12 C-2.09898702 8.70303895 -1.87124444 7.59505097 -1.0625 4.3125 C-0.86785156 3.50425781 -0.67320313 2.69601563 -0.47265625 1.86328125 C-0.31667969 1.24839844 -0.16070312 0.63351563 0 0 Z " fill="#DBE4E9" transform="translate(89,86)"/>
<path d="M0 0 C0.66 0.33 1.32 0.66 2 1 C0.74458443 3.51083114 -0.50063488 3.87125446 -3 5 C-2.67 5.66 -2.34 6.32 -2 7 C-4.4375 6.625 -4.4375 6.625 -7 6 C-7.33 5.34 -7.66 4.68 -8 4 C-6.71349294 3.30289269 -5.42059335 2.61757124 -4.125 1.9375 C-3.40570313 1.55464844 -2.68640625 1.17179687 -1.9453125 0.77734375 C-1.30335938 0.52082031 -0.66140625 0.26429687 0 0 Z " fill="#EBEFEF" transform="translate(140,66)"/>
<path d="M0 0 C1.32 0.66 2.64 1.32 4 2 C3.34 3.98 2.68 5.96 2 8 C1.01 7.67 0.02 7.34 -1 7 C-0.67 4.69 -0.34 2.38 0 0 Z " fill="#2C667B" transform="translate(165,173)"/>
<path d="M0 0 C-1.28788008 0.53012738 -2.58046678 1.0488329 -3.875 1.5625 C-4.95394531 1.99755859 -4.95394531 1.99755859 -6.0546875 2.44140625 C-8 3 -8 3 -10 2 C-10 1.01 -10 0.02 -10 -1 C-5.92224809 -1.9267618 -3.57818963 -2.33958553 0 0 Z " fill="#EFF1F3" transform="translate(117,188)"/>
<path d="M0 0 C0.33 0 0.66 0 1 0 C1.125 5.75 1.125 5.75 0 8 C-2.5625 8.625 -2.5625 8.625 -5 9 C-3.50164236 5.88802644 -1.86022073 2.91164984 0 0 Z " fill="#ECF1EF" transform="translate(156,174)"/>
<path d="M0 0 C0.33 1.32 0.66 2.64 1 4 C-4.14285714 8.42857143 -4.14285714 8.42857143 -8 9 C-7.34 8.01 -6.68 7.02 -6 6 C-5.34 6 -4.68 6 -4 6 C-3.71125 5.38125 -3.4225 4.7625 -3.125 4.125 C-2 2 -2 2 0 0 Z " fill="#D5E0E5" transform="translate(138,12)"/>
<path d="M0 0 C-2.95070119 1.96713413 -4.53581611 2.65358161 -8 3 C-8.99 2.34 -9.98 1.68 -11 1 C-6.8204355 -1.78637633 -4.85331323 -0.79562512 0 0 Z " fill="#EFF4F3" transform="translate(56,182)"/>
<path d="M0 0 C0.66 0 1.32 0 2 0 C2.309375 0.94875 2.61875 1.8975 2.9375 2.875 C3.87394742 5.86080408 3.87394742 5.86080408 5 8 C4.01 8.33 3.02 8.66 2 9 C-1.07692308 4.56923077 -1.07692308 4.56923077 -0.6875 1.6875 C-0.460625 1.130625 -0.23375 0.57375 0 0 Z " fill="#F0F4F5" transform="translate(237,164)"/>
<path d="M0 0 C0.66 0 1.32 0 2 0 C2.66 2.97 3.32 5.94 4 9 C3.01 9.33 2.02 9.66 1 10 C-0.60725635 6.78548731 -0.05748185 3.56387464 0 0 Z " fill="#2A6679" transform="translate(118,123)"/>
<path d="M0 0 C2.25245881 2.68841859 3.88213958 4.64641875 5 8 C4.01 8.33 3.02 8.66 2 9 C-1.07692308 4.56923077 -1.07692308 4.56923077 -0.6875 1.6875 C-0.460625 1.130625 -0.23375 0.57375 0 0 Z " fill="#ECF0F2" transform="translate(15,77)"/>
<path d="M0 0 C0.66 0.99 1.32 1.98 2 3 C1.34 4.32 0.68 5.64 0 7 C-0.33 6.34 -0.66 5.68 -1 5 C-1.33 5.66 -1.66 6.32 -2 7 C-2.99 6.67 -3.98 6.34 -5 6 C-3.35 4.02 -1.7 2.04 0 0 Z " fill="#E9EFF0" transform="translate(149,184)"/>
<path d="M0 0 C0.99 0 1.98 0 3 0 C2.8125 2.3125 2.8125 2.3125 2 5 C-0.5625 6.8125 -0.5625 6.8125 -3 8 C-1.125 2.25 -1.125 2.25 0 0 Z " fill="#EBEDEF" transform="translate(103,55)"/>
<path d="M0 0 C2.64 0 5.28 0 8 0 C7.01 0.495 7.01 0.495 6 1 C5.34786708 3.02463255 5.34786708 3.02463255 5 5 C4.67 4.34 4.34 3.68 4 3 C1.97536745 2.34786708 1.97536745 2.34786708 0 2 C0 1.34 0 0.68 0 0 Z " fill="#E8EFEF" transform="translate(219,51)"/>
<path d="M0 0 C1.31157516 2.62315032 0.89649988 4.23033436 0.5625 7.125 C0.46066406 8.03507812 0.35882813 8.94515625 0.25390625 9.8828125 C0.12822266 10.93082031 0.12822266 10.93082031 0 12 C-2.21436106 9.78563894 -2.74398588 9.07216944 -3 6 C-1.5625 2.75 -1.5625 2.75 0 0 Z " fill="#EEF3F0" transform="translate(77,27)"/>
<path d="M0 0 C0.99 0.33 1.98 0.66 3 1 C-0.465 3.97 -0.465 3.97 -4 7 C-4.66 6.34 -5.32 5.68 -6 5 C-4.68 4.67 -3.36 4.34 -2 4 C-2 3.01 -2 2.02 -2 1 C-1.34 0.67 -0.68 0.34 0 0 Z " fill="#2C6678" transform="translate(145,3)"/>
<path d="M0 0 C1.65 0 3.3 0 5 0 C5.33 1.98 5.66 3.96 6 6 C4.68 6 3.36 6 2 6 C2.33 4.68 2.66 3.36 3 2 C2.01 1.67 1.02 1.34 0 1 C0 0.67 0 0.34 0 0 Z " fill="#F6F6F5" transform="translate(56,0)"/>
<path d="M0 0 C2 3 2 3 1.625 5.6875 C1.41875 6.450625 1.2125 7.21375 1 8 C0.01 8.33 -0.98 8.66 -2 9 C-1.34 6.03 -0.68 3.06 0 0 Z " fill="#DEE5E8" transform="translate(177,226)"/>
<path d="M0 0 C3.96 0 7.92 0 12 0 C10.35 1.32 8.7 2.64 7 4 C6.67 3.01 6.34 2.02 6 1 C4.02 1 2.04 1 0 1 C0 0.67 0 0.34 0 0 Z " fill="#D9E2E6" transform="translate(124,177)"/>
<path d="M0 0 C2.5 1.3125 2.5 1.3125 5 3 C5 3.99 5 4.98 5 6 C2.5625 5.1875 2.5625 5.1875 0 4 C-0.33 3.01 -0.66 2.02 -1 1 C-0.67 0.67 -0.34 0.34 0 0 Z " fill="#EDF0F0" transform="translate(221,117)"/>
<path d="M0 0 C0.66 0.99 1.32 1.98 2 3 C0.625 5.5 0.625 5.5 -1 8 C-1.66 8 -2.32 8 -3 8 C-2.45276317 4.62537285 -1.9451 2.91765 0 0 Z " fill="#F2F3F3" transform="translate(153,194)"/>
<path d="M0 0 C0.66 0 1.32 0 2 0 C4.42857143 7.42857143 4.42857143 7.42857143 3 11 C0.84694043 7.14243493 -0.39253254 4.44870215 0 0 Z " fill="#467D8C" transform="translate(180,144)"/>
<path d="M0 0 C1.65 0.33 3.3 0.66 5 1 C3.37660195 2.70884005 1.70680947 4.37446717 0 6 C-0.66 6 -1.32 6 -2 6 C-2 5.34 -2 4.68 -2 4 C-1.34 4 -0.68 4 0 4 C0 2.68 0 1.36 0 0 Z " fill="#E6EDEE" transform="translate(140,139)"/>
<path d="M0 0 C1.32 1.65 2.64 3.3 4 5 C3.67 5.66 3.34 6.32 3 7 C2.34 6.67 1.68 6.34 1 6 C0.67 7.32 0.34 8.64 0 10 C0 6.7 0 3.4 0 0 Z " fill="#E3EAEC" transform="translate(179,120)"/>
<path d="M0 0 C2.4294516 3.6441774 2.16179575 5.71241272 2 10 C1.34 10 0.68 10 0 10 C-1.125 2.25 -1.125 2.25 0 0 Z " fill="#EDF2F2" transform="translate(198,243)"/>
<path d="M0 0 C0.66 0.33 1.32 0.66 2 1 C1.4375 2.9375 1.4375 2.9375 0 5 C-3.625 5.75 -3.625 5.75 -7 6 C-4.83312509 3.72478134 -2.54379491 1.84205838 0 0 Z " fill="#E0E9ED" transform="translate(101,225)"/>
<path d="M0 0 C2.475 0.495 2.475 0.495 5 1 C4.67 2.32 4.34 3.64 4 5 C2.68 4.34 1.36 3.68 0 3 C0 2.01 0 1.02 0 0 Z " fill="#31697E" transform="translate(6,164)"/>
<path d="M0 0 C0.625 1.8125 0.625 1.8125 1 4 C0.01 5.485 0.01 5.485 -1 7 C-1 6.34 -1 5.68 -1 5 C-2.32 5.33 -3.64 5.66 -5 6 C-3.35 4.02 -1.7 2.04 0 0 Z " fill="#D9E2E7" transform="translate(169,157)"/>
<path d="M0 0 C0.99 0.33 1.98 0.66 3 1 C2.67 1.66 2.34 2.32 2 3 C1.34 3 0.68 3 0 3 C0 3.66 0 4.32 0 5 C-2.475 4.01 -2.475 4.01 -5 3 C-4.360625 2.690625 -3.72125 2.38125 -3.0625 2.0625 C-1.06389179 1.1654837 -1.06389179 1.1654837 0 0 Z " fill="#28677A" transform="translate(201,97)"/>
<path d="M0 0 C1.98 0.99 3.96 1.98 6 3 C5.01 4.485 5.01 4.485 4 6 C2.35 5.01 0.7 4.02 -1 3 C-0.67 2.01 -0.34 1.02 0 0 Z " fill="#286479" transform="translate(47,146)"/>
<path d="M0 0 C2.31 0.33 4.62 0.66 7 1 C3.5647952 3.29013653 2.014669 3.17842973 -2 3 C-1.34 2.01 -0.68 1.02 0 0 Z " fill="#27657A" transform="translate(168,97)"/>
<path d="M0 0 C0.66 0.99 1.32 1.98 2 3 C1.67 3.99 1.34 4.98 1 6 C-0.32 5.67 -1.64 5.34 -3 5 C-2.01 3.35 -1.02 1.7 0 0 Z " fill="#266578" transform="translate(58,90)"/>
<path d="M0 0 C0.66 0 1.32 0 2 0 C2.33 0.99 2.66 1.98 3 3 C1.68 4.32 0.36 5.64 -1 7 C-1 3 -1 3 0 0 Z " fill="#EDF1EF" transform="translate(103,70)"/>
<path d="M0 0 C1.32 0.66 2.64 1.32 4 2 C2.02 2.99 0.04 3.98 -2 5 C-2.33 4.01 -2.66 3.02 -3 2 C-2.01 1.34 -1.02 0.68 0 0 Z " fill="#E9EEEF" transform="translate(158,23)"/>
</svg>
